<svg width="35" height="35" viewBox="0 0 35 35" fill="none" xmlns="http://www.w3.org/2000/svg">
<path d="M4.26746 15.6476H15.6475V4.26758H4.26746V15.6476ZM7.11246 7.11258H12.8025V12.8026H7.11246V7.11258Z" fill="#666666"/>
<path d="M4.26746 29.8724H15.6475V18.4924H4.26746V29.8724ZM7.11246 21.3374H12.8025V27.0274H7.11246V21.3374Z" fill="#666666"/>
<path d="M18.4926 4.26758V15.6476H29.8726V4.26758H18.4926ZM27.0276 12.8026H21.3376V7.11258H27.0276V12.8026Z" fill="#666666"/>
<path d="M27.0275 27.0276H29.8725V29.8726H27.0275V27.0276Z" fill="#666666"/>
<path d="M18.4926 18.4924H21.3376V21.3374H18.4926V18.4924Z" fill="#666666"/>
<path d="M21.3375 21.3374H24.1825V24.1824H21.3375V21.3374Z" fill="#666666"/>
<path d="M18.4926 24.1826H21.3376V27.0276H18.4926V24.1826Z" fill="#666666"/>
<path d="M21.3375 27.0276H24.1825V29.8726H21.3375V27.0276Z" fill="#666666"/>
<path d="M24.1825 24.1826H27.0275V27.0276H24.1825V24.1826Z" fill="#666666"/>
<path d="M24.1825 18.4924H27.0275V21.3374H24.1825V18.4924Z" fill="#666666"/>
<path d="M27.0275 21.3374H29.8725V24.1824H27.0275V21.3374Z" fill="#666666"/>
</svg>
